<?xml version="1.0" encoding="UTF-8"?>
<svg id="a" width="373" height="690" fill="none" version="1.1" viewBox="0 0 373 690" xmlns="http://www.w3.org/2000/svg">
 <path id="b" d="m354.81 225.96c-29.087-28.828-57.667-58.19-87.078-86.679-24.332-21.119-62.292-13.04-80.917 11.473-42.737 42.737-85.474 85.474-128.21 128.21-3.474-18.613 14.462-28.861 25.185-40.885 35.49-35.753 71.516-70.995 106.67-107.07 21.12-24.332 13.041-62.292-11.473-80.917-16.627-14.95-30.129-34.018-49.425-45.497-16.971-4.7372-35.227-2.6091-52.69-2.128-21.435 1.7268-24.856 24.205-34.88 37.372-12.723 13.987-28.553 25.581-38.607 41.639-9.1058 23.16 15.053 36.914 28.053 51.684 5.091 2.7438 17.568 23.322 15.844 9.611v-51.002c28.428 0.2584 56.932-0.51999 85.313 0.3949 14.095 9.5661-6.0679 20.416-12.273 28.446-37.436 38.087-76.262 74.947-112.81 113.81-10.638 18.929-4.4762 41.573-6.1267 62.33-1.2946 17.451 0.8386 36.644 16.193 47.746 18.575 17.396 34.938 37.485 55.138 52.91 19.684 7.873 41.63 2.8897 62.39 4.2967 7.2728 2.3387 24.953-5.7304 22.598 6.2371v272.48c9.6494 20.306 20.103-5.1919 15.857-17.152v-261.57c26.089-0.82568 52.516 1.7983 78.362-1.5666 18.685-7.7076 30.063-25.881 44.965-38.887-38.924-39.337-78.756-77.932-117.12-117.73 1.595-16.951 16.805 1.3794 22.299 7.2184 34.222 34.221 68.443 68.442 102.67 102.66l40.456-40.456c-38.924-39.338-78.757-77.931-117.11-117.73 1.5944-16.95 16.807 1.3791 22.3 7.2187 34.221 34.222 68.442 68.443 102.66 102.67 22.787-20.053 23.774-58.119 1.78-79.142z" clip-rule="evenodd" fill="#05f2f2" fill-rule="evenodd"/>
</svg>
